<?xml version="1.0" standalone="no"?>
<svg xmlns:xlink="http://www.w3.org/1999/xlink" id="wave" style="transform:rotate(180deg); transition: 0.3s" viewBox="0 0 1440 100" version="1.1" xmlns="http://www.w3.org/2000/svg"><defs><linearGradient id="sw-gradient-0" x1="0" x2="0" y1="1" y2="0"><stop stop-color="rgba(234, 236, 238, 1)" offset="0%"/><stop stop-color="rgba(234, 236, 238, 1)" offset="100%"/></linearGradient></defs><path style="transform:translate(0, 0px); opacity:1" fill="url(#sw-gradient-0)" d="M0,0L80,13.3C160,27,320,53,480,55C640,57,800,33,960,35C1120,37,1280,63,1440,70C1600,77,1760,63,1920,58.3C2080,53,2240,57,2400,50C2560,43,2720,27,2880,26.7C3040,27,3200,43,3360,50C3520,57,3680,53,3840,45C4000,37,4160,23,4320,26.7C4480,30,4640,50,4800,60C4960,70,5120,70,5280,65C5440,60,5600,50,5760,50C5920,50,6080,60,6240,55C6400,50,6560,30,6720,30C6880,30,7040,50,7200,48.3C7360,47,7520,23,7680,25C7840,27,8000,53,8160,60C8320,67,8480,53,8640,55C8800,57,8960,73,9120,76.7C9280,80,9440,70,9600,56.7C9760,43,9920,27,10080,26.7C10240,27,10400,43,10560,41.7C10720,40,10880,20,11040,21.7C11200,23,11360,47,11440,58.3L11520,70L11520,100L11440,100C11360,100,11200,100,11040,100C10880,100,10720,100,10560,100C10400,100,10240,100,10080,100C9920,100,9760,100,9600,100C9440,100,9280,100,9120,100C8960,100,8800,100,8640,100C8480,100,8320,100,8160,100C8000,100,7840,100,7680,100C7520,100,7360,100,7200,100C7040,100,6880,100,6720,100C6560,100,6400,100,6240,100C6080,100,5920,100,5760,100C5600,100,5440,100,5280,100C5120,100,4960,100,4800,100C4640,100,4480,100,4320,100C4160,100,4000,100,3840,100C3680,100,3520,100,3360,100C3200,100,3040,100,2880,100C2720,100,2560,100,2400,100C2240,100,2080,100,1920,100C1760,100,1600,100,1440,100C1280,100,1120,100,960,100C800,100,640,100,480,100C320,100,160,100,80,100L0,100Z"/></svg>